<?xml version="1.0" encoding="iso-8859-1"?>
<!-- Generator: Adobe Illustrator 19.0.0, SVG Export Plug-In . SVG Version: 6.00 Build 0)  -->
<svg version="1.1" id="Layer_1" xmlns="http://www.w3.org/2000/svg" xmlns:xlink="http://www.w3.org/1999/xlink" x="0px" y="0px"
	 viewBox="0 0 512 512" style="enable-background:new 0 0 512 512;" xml:space="preserve">
<g transform="translate(1 1)">
	<g>
		<g>
			<path d="M135.533,459.8c-5.12,0-8.533,3.413-8.533,8.533s3.413,8.533,8.533,8.533s8.533-3.413,8.533-8.533
				S140.653,459.8,135.533,459.8z"/>
			<path d="M374.467,476.867c5.12,0,8.533-3.413,8.533-8.533s-3.413-8.533-8.533-8.533s-8.533,3.413-8.533,8.533
				S369.347,476.867,374.467,476.867z"/>
			<path d="M459.8,161.133h-25.6V96.28l11.8-11.8c5.998,5.214,13.811,8.386,22.334,8.386c18.773,0,34.133-15.36,34.133-34.133
				S487.107,24.6,468.333,24.6c-18.773,0-34.133,15.36-34.133,34.133c0,4.07,0.724,7.979,2.047,11.607l-16.553,16.553
				c-1.707,1.707-2.56,3.413-2.56,5.973v68.267h-20.911c-23.512-26.681-78.357-43.52-141.222-43.52
				c-17.679,0-35.034,1.591-51.307,4.373l52.16-52.16c2.56-3.413,3.413-7.68,0.853-11.093C231.96,21.187,189.293-1,144.067-1
				C68.973-1,7.533,60.44,7.533,135.533c0,9.02,0.976,18.042,2.922,27.43c-1.847,1.497-2.922,3.831-2.922,6.704v102.4
				c0,23.893,18.773,42.667,42.667,42.667h48.466l138.272,76.976l-75.874,42.239c-7.078-5.22-15.886-8.282-25.531-8.282
				c-23.893,0-42.667,18.773-42.667,42.667c0,23.893,18.773,42.667,42.667,42.667s42.667-18.773,42.667-42.667
				c0-7.771-1.996-14.993-5.498-21.211l82.027-45.508L337.1,447.47c-3.381,6.139-5.3,13.238-5.3,20.864
				c0,23.893,18.773,42.667,42.667,42.667s42.667-18.773,42.667-42.667c0-23.893-18.773-42.667-42.667-42.667
				c-9.645,0-18.453,3.062-25.531,8.282l-76.113-42.372l138.506-76.842H459.8c23.893,0,42.667-18.773,42.667-42.667V203.8
				C502.467,179.907,483.693,161.133,459.8,161.133z M468.333,41.667c9.387,0,17.067,7.68,17.067,17.067S477.72,75.8,468.333,75.8
				s-17.067-7.68-17.067-17.067S458.947,41.667,468.333,41.667z M135.533,493.933c-14.507,0-25.6-11.093-25.6-25.6
				c0-14.507,11.093-25.6,25.6-25.6c6.998,0,13.196,2.587,17.743,6.887c0.365,0.444,0.771,0.841,1.198,1.21
				c4.164,4.524,6.658,10.629,6.658,17.503C161.133,482.84,150.04,493.933,135.533,493.933z M400.067,468.333
				c0,14.507-11.093,25.6-25.6,25.6s-25.6-11.093-25.6-25.6c0-6.874,2.494-12.979,6.659-17.503c0.427-0.369,0.833-0.765,1.198-1.209
				c4.547-4.301,10.746-6.887,17.743-6.887C388.973,442.733,400.067,453.827,400.067,468.333z M255,135.533
				c45.227,0,87.893,10.24,113.493,25.6H164.547l16.213-16.213C202.947,138.947,228.547,135.533,255,135.533z M238.787,63
				l-68.267,68.267l-17.92,17.92V16.067C186.733,18.627,218.307,35.693,238.787,63z M135.533,16.067v145.067H27.16
				c-1.707-8.533-2.56-17.067-2.56-25.6C24.6,72.387,73.24,20.333,135.533,16.067z M255,381.654l-120.209-66.921h240.419
				L255,381.654z M485.4,272.067c0,14.507-11.093,25.6-25.6,25.6h-48.853c-1.499-0.45-3.103-0.467-4.664,0H103.718
				c-1.562-0.467-3.165-0.45-4.664,0H50.2c-11.491,0-20.833-6.963-24.224-17.067h41.291c5.12,0,8.533-3.413,8.533-8.533
				c0-5.12-3.413-8.533-8.533-8.533H24.6v-17.067h25.6c5.12,0,8.533-3.413,8.533-8.533S55.32,229.4,50.2,229.4H24.6v-17.067h42.667
				c5.12,0,8.533-3.413,8.533-8.533c0-5.12-3.413-8.533-8.533-8.533H24.6V178.2h119.467h247.467H459.8
				c14.507,0,25.6,11.093,25.6,25.6V272.067z"/>
		</g>
	</g>
</g>
<g>
</g>
<g>
</g>
<g>
</g>
<g>
</g>
<g>
</g>
<g>
</g>
<g>
</g>
<g>
</g>
<g>
</g>
<g>
</g>
<g>
</g>
<g>
</g>
<g>
</g>
<g>
</g>
<g>
</g>
</svg>
